<svg width="100" height="100" viewBox="0 0 100 100" fill="none" xmlns="http://www.w3.org/2000/svg">
<circle cx="50" cy="50" r="50" fill="#FFF7F7"/>
<path d="M30.8828 65.112C30.9371 53.1047 30.99 41.1147 31.0415 29.142C31.0437 28.7567 31.1508 28.3843 31.3445 28.0884C31.5382 27.7924 31.8064 27.5913 32.1035 27.5193C35.5215 26.612 40.9089 26.8401 44.5669 28.6288C47.143 29.814 49.4011 31.9089 51.0773 34.6687C52.8073 32.041 55.054 30.0461 57.5877 28.888C61.0423 27.2082 66.2832 26.8038 70.0389 27.5193C70.3489 27.5728 70.6335 27.7668 70.8404 28.0658C71.0474 28.3647 71.163 28.7486 71.166 29.1472V65.2623C71.1655 65.4813 71.131 65.698 71.0647 65.9C70.9983 66.102 70.9012 66.2853 70.7791 66.4394C70.657 66.5936 70.5123 66.7155 70.3531 66.7982C70.194 66.8809 70.0236 66.9227 69.8517 66.9214C69.7503 66.9196 69.6494 66.9039 69.5506 66.8747C66.3433 66.3445 63.0836 66.7324 60.0088 68.0101C57.7373 69.0889 55.5814 70.5277 53.592 72.2925C56.3895 71.1864 59.3056 70.6441 62.2345 70.6853C65.9931 70.7615 69.7335 71.3666 73.3877 72.4895V34.6946H74.6938C75.0403 34.6946 75.3725 34.87 75.6174 35.1821C75.8624 35.4942 76 35.9175 76 36.3588V74.667C76 75.1084 75.8624 75.5317 75.6174 75.8438C75.3725 76.1559 75.0403 76.3312 74.6938 76.3312C74.5554 76.3298 74.418 76.3 74.2869 76.2431C70.3506 74.8639 66.2957 74.1099 62.2142 73.9982C58.6073 73.9402 55.0328 74.8702 51.7324 76.7252C51.5111 76.9047 51.2542 77 50.9919 77C50.7295 77 50.4726 76.9047 50.2513 76.7252C46.9511 74.8698 43.3765 73.9397 39.7696 73.9982C35.6973 74.1163 31.652 74.8738 27.7253 76.2534C27.5942 76.3104 27.4568 76.3401 27.3184 76.3416C27.1451 76.3436 26.9733 76.3018 26.8129 76.2184C26.6525 76.1351 26.5067 76.0119 26.384 75.856C26.2613 75.7002 26.1642 75.5148 26.0982 75.3107C26.0323 75.1065 25.9989 74.8877 26 74.667V36.3588C26 35.9175 26.1376 35.4942 26.3826 35.1821C26.6275 34.87 26.9598 34.6946 27.3062 34.6946H28.6123V72.4895C32.2666 71.3666 36.007 70.7615 39.7655 70.6853C42.9054 70.638 46.0292 71.2636 49.0062 72.5362C47.1257 70.5981 44.9826 69.1151 42.683 68.1605C39.8347 66.968 35.489 66.5688 32.3111 66.9162C32.1388 66.9376 31.9649 66.9151 31.7994 66.85C31.634 66.785 31.4804 66.6787 31.3475 66.5374C31.2146 66.396 31.1051 66.2225 31.0253 66.0267C30.9456 65.8309 30.8971 65.6169 30.8828 65.3971C30.8787 65.3022 30.8787 65.207 30.8828 65.112ZM55.9642 60.3889C55.8616 60.4863 55.7444 60.5559 55.6198 60.5933C55.4953 60.6307 55.366 60.6352 55.24 60.6064C55.1141 60.5776 54.9941 60.5163 54.8875 60.4261C54.7809 60.3359 54.6899 60.2188 54.6202 60.0821C54.5505 59.9453 54.5036 59.7918 54.4823 59.631C54.461 59.4703 54.4658 59.3056 54.4964 59.1473C54.527 58.989 54.5828 58.8404 54.6603 58.7106C54.7378 58.5808 54.8354 58.4727 54.947 58.3929C56.4483 57.2053 58.0616 56.2646 59.7484 55.5933C61.4599 54.8551 63.2367 54.3901 65.0381 54.209C65.1605 54.2005 65.2829 54.2228 65.3985 54.2746C65.5142 54.3264 65.6206 54.4067 65.7119 54.5109C65.8031 54.6152 65.8774 54.7413 65.9304 54.8821C65.9834 55.0228 66.0141 55.1755 66.0208 55.3315C66.0274 55.4874 66.01 55.6434 65.9693 55.7907C65.9286 55.938 65.8656 56.0737 65.7838 56.1899C65.702 56.3062 65.603 56.4008 65.4925 56.4683C65.382 56.5359 65.2622 56.575 65.1398 56.5835C63.5059 56.7578 61.8948 57.1862 60.3425 57.8589C58.8049 58.4628 57.3337 59.313 55.9642 60.3889ZM56.0456 51.1813C55.8368 51.3504 55.5838 51.4069 55.3423 51.3384C55.1007 51.2698 54.8905 51.0818 54.7577 50.8158C54.625 50.5497 54.5807 50.2274 54.6345 49.9196C54.6883 49.6119 54.8358 49.344 55.0446 49.1749C56.5428 48.0136 58.1471 47.0908 59.8216 46.4271C61.5057 45.7088 63.2518 45.2527 65.0218 45.0688C65.264 45.0635 65.4983 45.178 65.6755 45.3882C65.8528 45.5985 65.9592 45.8881 65.9723 46.1962C65.9855 46.5043 65.9044 46.8069 65.7461 47.0404C65.5879 47.2739 65.3647 47.4202 65.1235 47.4484C63.5125 47.6187 61.9236 48.0365 60.3913 48.6927C58.8684 49.2932 57.409 50.1289 56.0456 51.1813ZM56.07 42.0047C55.9661 42.0885 55.8502 42.1453 55.729 42.172C55.6079 42.1987 55.4838 42.1947 55.3638 42.1603C55.2438 42.1259 55.1304 42.0617 55.0299 41.9714C54.9294 41.8811 54.8438 41.7665 54.7781 41.634C54.7124 41.5016 54.6678 41.354 54.6468 41.1996C54.6259 41.0452 54.629 40.8871 54.656 40.7342C54.683 40.5814 54.7334 40.4368 54.8043 40.3088C54.8751 40.1807 54.9651 40.0717 55.069 39.988C56.5649 38.832 58.1665 37.9144 59.8379 37.2558C61.5167 36.5406 63.2574 36.088 65.0218 35.9078C65.1442 35.8993 65.2667 35.9216 65.3823 35.9734C65.4979 36.0252 65.6043 36.1055 65.6956 36.2097C65.7868 36.3139 65.8611 36.44 65.9141 36.5808C65.9671 36.7216 65.9978 36.8743 66.0045 37.0302C66.0112 37.1861 65.9937 37.3422 65.953 37.4895C65.9124 37.6368 65.8493 37.7725 65.7675 37.8887C65.6857 38.005 65.5868 38.0996 65.4763 38.1671C65.3658 38.2346 65.2459 38.2738 65.1235 38.2823C63.5182 38.4528 61.9349 38.8688 60.4076 39.5214C58.8876 40.1205 57.4309 40.9545 56.07 42.0047ZM47.0531 58.3929C47.1647 58.4727 47.2622 58.5808 47.3397 58.7106C47.4172 58.8404 47.473 58.989 47.5036 59.1473C47.5342 59.3056 47.539 59.4703 47.5178 59.631C47.4965 59.7918 47.4495 59.9453 47.3798 60.0821C47.3101 60.2188 47.2192 60.3359 47.1126 60.4261C47.006 60.5163 46.886 60.5776 46.76 60.6064C46.634 60.6352 46.5048 60.6307 46.3802 60.5933C46.2557 60.5559 46.1384 60.4863 46.0358 60.3889C44.6714 59.3145 43.2058 58.4645 41.6738 57.8589C40.1215 57.1862 38.5104 56.7578 36.8765 56.5835C36.7541 56.5743 36.6344 56.5345 36.5241 56.4664C36.4138 56.3982 36.3151 56.303 36.2337 56.1863C36.1523 56.0695 36.0897 55.9335 36.0495 55.7859C36.0094 55.6384 35.9924 55.4822 35.9996 55.3263C36.0068 55.1704 36.0381 55.0178 36.0916 54.8773C36.1451 54.7367 36.2197 54.611 36.3114 54.5073C36.403 54.4035 36.5098 54.3238 36.6256 54.2726C36.7414 54.2214 36.864 54.1998 36.9863 54.209C38.7877 54.3901 40.5645 54.8551 42.2761 55.5933C43.9628 56.2646 45.5761 57.2053 47.0775 58.3929H47.0531ZM46.9554 49.1749C47.1642 49.3468 47.3109 49.6173 47.3632 49.927C47.4155 50.2366 47.369 50.5601 47.2341 50.8261C47.0993 51.0922 46.8869 51.2791 46.6439 51.3457C46.4008 51.4123 46.147 51.3532 45.9382 51.1813C44.5747 50.1289 43.1153 49.2932 41.5925 48.6927C40.0602 48.0365 38.4712 47.6187 36.8602 47.4484C36.6125 47.4271 36.3817 47.2813 36.2184 47.0431C36.0551 46.8049 35.9727 46.4938 35.9894 46.1783C36.0062 45.8627 36.1206 45.5685 36.3076 45.3604C36.4945 45.1524 36.7387 45.0475 36.9863 45.0688C38.7564 45.2527 40.5025 45.7088 42.1865 46.4271C43.8611 47.0908 45.4654 48.0136 46.9636 49.1749H46.9554ZM46.931 39.988C47.0429 40.066 47.1411 40.1724 47.2195 40.3006C47.298 40.4288 47.3551 40.576 47.3872 40.7333C47.4194 40.8906 47.426 41.0546 47.4065 41.2153C47.3871 41.3759 47.3422 41.5298 47.2744 41.6675C47.2066 41.8052 47.1174 41.9238 47.0124 42.016C46.9073 42.1082 46.7885 42.172 46.6634 42.2036C46.5383 42.2352 46.4094 42.2338 46.2847 42.1996C46.1599 42.1654 46.042 42.0991 45.9382 42.0047C44.5773 40.9545 43.1206 40.1205 41.6006 39.5214C40.0733 38.8688 38.4899 38.4528 36.8846 38.2823C36.7623 38.2738 36.6424 38.2346 36.5319 38.1671C36.4214 38.0996 36.3224 38.005 36.2406 37.8887C36.1588 37.7725 36.0958 37.6368 36.0551 37.4895C36.0145 37.3422 35.997 37.1861 36.0037 37.0302C36.0104 36.8743 36.0411 36.7216 36.0941 36.5808C36.1471 36.44 36.2213 36.3139 36.3126 36.2097C36.4038 36.1055 36.5103 36.0252 36.6259 35.9734C36.7415 35.9216 36.864 35.8993 36.9863 35.9078C38.7508 36.088 40.4915 36.5406 42.1703 37.2558C43.8416 37.9144 45.4432 38.832 46.9391 39.988H46.931ZM68.5456 30.63C65.5264 30.2671 61.1969 30.6922 58.4829 32.0039C55.9599 33.1308 53.797 35.2819 52.3265 38.1267V69.3684C54.4411 67.5218 56.7261 66.0139 59.1299 64.8787C62.1681 63.6387 65.3616 63.1341 68.5456 63.3907V30.63ZM49.7142 69.047V38.0801C48.347 35.0057 46.1375 32.9526 43.6392 31.7343C40.7909 30.35 36.4167 30.0389 33.6457 30.5418L33.4992 63.4944C36.5225 63.3544 40.6973 63.847 43.4764 65.0031C45.7094 65.9254 47.8145 67.2901 49.7142 69.047Z" fill="black"/>
</svg>
