<svg width="68" height="68" viewBox="0 0 68 68" fill="none" xmlns="http://www.w3.org/2000/svg">
<path d="M32.1667 0V10.7906H35.8318V0H32.1663H32.1667ZM17.2004 3.24275L14.1976 5.34525L20.3857 14.1822L23.387 12.0796L17.2004 3.24275ZM50.7973 3.24275L44.611 12.0797L47.6126 14.1823L53.8007 5.34525L50.7978 3.24275H50.7973ZM33.9985 13.743C25.0323 13.743 17.7639 19.1877 17.7639 25.9051L26.9876 53.8388H41.0109L50.2339 25.9051C50.2339 19.1878 42.9659 13.743 33.9993 13.743H33.9985ZM4.84212 16.9815L3.58984 20.4276L13.7246 24.1174L14.9815 20.6729L4.84189 16.9815H4.84212ZM63.1556 16.9815L53.0159 20.6732L54.2686 24.1181L64.4083 20.4277L63.1556 16.9815ZM14.4919 32.7353L4.07094 35.5304L5.01648 39.0682L15.4375 36.277L14.4921 32.7353H14.4919ZM53.5058 32.7353L52.5609 36.277L62.982 39.0676L63.9268 35.5298L53.5058 32.7351V32.7353ZM26.7832 55.8751V60.7307H41.2154V55.8759H26.7832L26.7832 55.8751ZM26.7832 63.1445V68H41.2154V63.1453H26.7832L26.7832 63.1445Z" fill="#E86B34"/>
</svg>
