<svg width="100" height="100" viewBox="0 0 100 100" fill="none" xmlns="http://www.w3.org/2000/svg">
<circle cx="50" cy="50" r="50" fill="#FFF7F7"/>
<path fill-rule="evenodd" clip-rule="evenodd" d="M26.8504 23H75.1496C75.6175 23 76 23.388 76 23.8631V72.1369C76 72.612 75.6216 73 75.1496 73H26.8504C26.3825 73 26 72.612 26 72.1369V23.8631C26 23.388 26.3784 23 26.8504 23ZM48.3533 40.2319L54.6923 44.9704C54.7981 45.0401 54.8917 45.136 54.9649 45.2493C55.2619 45.7114 55.1521 46.3391 54.7249 46.6574L48.4144 51.3348C48.2516 51.4786 48.0441 51.5615 47.8163 51.5615C47.2914 51.5615 46.8683 51.1081 46.8683 50.5458V41.0645H46.8723C46.8723 40.864 46.9293 40.6635 47.0432 40.4847C47.3362 40.0227 47.9261 39.9137 48.3533 40.2319ZM37.4004 59.2467H58.1222C58.3216 59.2467 58.4843 59.4211 58.4843 59.6347V61.082C58.4843 61.2956 58.3216 61.4699 58.1222 61.4699H37.4004C37.2011 61.4699 37.0383 61.2956 37.0383 61.082V59.6347C37.0383 59.4211 37.2011 59.2467 37.4004 59.2467ZM32.9249 59.2467H34.6459C34.8453 59.2467 35.0081 59.4211 35.0081 59.6347V61.082C35.0081 61.2956 34.8453 61.4699 34.6459 61.4699H32.9249C32.7255 61.4699 32.5628 61.2956 32.5628 61.082V59.6347C32.5628 59.4211 32.7255 59.2467 32.9249 59.2467ZM33.0632 65.9555H60.7058C60.9825 65.9555 61.2063 66.3217 61.2063 66.7663V67.0584C61.2063 67.5031 60.9784 67.8692 60.7058 67.8692H33.0632C32.7866 67.8692 32.5628 67.5031 32.5628 67.0584V66.7663C32.5628 66.3174 32.7866 65.9555 33.0632 65.9555ZM32.5628 36.0427H69.4332C69.8807 36.0427 70.2469 36.4002 70.2469 36.8448V54.7698C70.2469 55.2101 69.8848 55.5719 69.4332 55.5719H32.5628C32.1152 55.5719 31.749 55.2145 31.749 54.7698V36.8448C31.749 36.4002 32.1152 36.0427 32.5628 36.0427ZM68.6194 37.6425H33.3765V53.9634H68.6235V37.6425H68.6194ZM64.9779 25.925C65.869 25.925 66.5932 26.701 66.5932 27.6556C66.5932 28.6103 65.869 29.3862 64.9779 29.3862C64.0869 29.3862 63.3627 28.6103 63.3627 27.6556C63.3627 26.701 64.0828 25.925 64.9779 25.925ZM59.3143 25.925C60.2054 25.925 60.9296 26.701 60.9296 27.6556C60.9296 28.6103 60.2054 29.3862 59.3143 29.3862C58.4233 29.3862 57.6991 28.6103 57.6991 27.6556C57.6991 26.701 58.4192 25.925 59.3143 25.925ZM70.6375 25.925C71.5285 25.925 72.2527 26.701 72.2527 27.6556C72.2527 28.6103 71.5285 29.3862 70.6375 29.3862C69.7464 29.3862 69.0222 28.6103 69.0222 27.6556C69.0222 26.701 69.7464 25.925 70.6375 25.925ZM74.2993 32.3156H27.6966V71.2738H74.2993V32.3156Z" fill="black"/>
</svg>
