<svg width="84" height="84" viewBox="0 0 84 84" fill="none" xmlns="http://www.w3.org/2000/svg">
<path d="M42 7.875C35.2507 7.875 28.653 9.8764 23.0412 13.6261C17.4294 17.3758 13.0555 22.7054 10.4726 28.9409C7.88979 35.1765 7.214 42.0379 8.53072 48.6575C9.84744 55.2771 13.0975 61.3576 17.87 66.13C22.6425 70.9025 28.723 74.1526 35.3426 75.4693C41.9622 76.786 48.8236 76.1102 55.0591 73.5274C61.2946 70.9445 66.6242 66.5707 70.3739 60.9588C74.1236 55.347 76.125 48.7493 76.125 42C76.1155 32.9524 72.5171 24.2781 66.1195 17.8805C59.7219 11.4829 51.0476 7.88455 42 7.875ZM70.875 42C70.8779 45.7045 70.1648 49.3746 68.775 52.8084L54.1078 43.7883C53.4842 43.4035 52.7866 43.1542 52.0603 43.0566L44.5725 42.0459C43.5407 41.9114 42.4922 42.0844 41.5583 42.5431C40.6244 43.0019 39.8466 43.7261 39.3225 44.625H36.4613L35.2144 42.0459C34.8697 41.3278 34.3652 40.6981 33.7396 40.205C33.114 39.7119 32.3838 39.3685 31.605 39.2011L28.98 38.6334L31.546 34.125H37.0289C37.9162 34.1233 38.7886 33.8975 39.5653 33.4688L43.5849 31.2506C43.938 31.0538 44.2682 30.8183 44.5692 30.5484L53.3991 22.5619C54.2844 21.7685 54.8728 20.6971 55.0672 19.5243C55.2617 18.3516 55.0506 17.1476 54.4688 16.1109L54.3506 15.8977C59.2915 18.2405 63.4667 21.9364 66.3916 26.5566C69.3164 31.1769 70.8711 36.5318 70.875 42ZM13.125 42C13.1206 37.7082 14.0782 33.4699 15.9272 29.5969L19.6481 39.5292C19.9582 40.3516 20.4698 41.0829 21.136 41.6562C21.8021 42.2295 22.6016 42.6264 23.461 42.8105L30.4927 44.3231L31.7428 46.9219C32.1767 47.8057 32.8491 48.5507 33.684 49.0725C34.519 49.5944 35.4832 49.8723 36.4678 49.875H36.9535L34.5811 55.2005C34.1631 56.1382 34.0292 57.1779 34.196 58.1909C34.3628 59.2039 34.823 60.1458 35.5195 60.9L35.5655 60.9459L42 67.5741L41.3635 70.8553C33.8226 70.6798 26.6489 67.5642 21.3732 62.1732C16.0975 56.7823 13.1375 49.5429 13.125 42Z" fill="#E86B34"/>
</svg>
