<svg width="82" height="82" viewBox="0 0 82 82" fill="none" xmlns="http://www.w3.org/2000/svg">
<path d="M31.3979 21.6957C24.4279 29.5198 19.6445 40.7607 19.2004 41.8198L6.83203 36.524L20.6695 22.6865C22.2754 21.0807 24.5987 20.3632 26.8537 20.8073L31.3979 21.6957ZM38.1629 58.0832C38.1629 58.0832 50.9412 52.7873 58.287 45.4415C76.737 26.9915 73.662 12.5732 72.6712 9.32733C69.4254 8.30233 55.007 5.26149 36.557 23.7115C29.2112 31.0573 23.9154 43.8357 23.9154 43.8357L38.1629 58.0832ZM60.3029 50.6007C52.4787 57.5707 41.2379 62.354 40.1787 62.7982L45.4745 75.1665L59.312 61.329C60.9179 59.7232 61.6354 57.3998 61.1912 55.1448L60.3029 50.6007ZM30.7487 61.4998C30.7487 64.3357 29.587 66.8982 27.742 68.7432C23.7104 72.7748 6.83203 75.1665 6.83203 75.1665C6.83203 75.1665 9.2237 58.2882 13.2554 54.2565C14.6863 52.8181 16.5123 51.8374 18.5016 51.4389C20.491 51.0403 22.5539 51.242 24.4284 52.0181C26.303 52.7943 27.9046 54.11 29.0299 55.7982C30.1552 57.4864 30.7535 59.471 30.7487 61.4998ZM44.4154 30.7498C44.4154 26.9915 47.4904 23.9165 51.2487 23.9165C55.007 23.9165 58.082 26.9915 58.082 30.7498C58.082 34.5082 55.007 37.5832 51.2487 37.5832C47.4904 37.5832 44.4154 34.5082 44.4154 30.7498Z" fill="#E86B34"/>
</svg>
