<svg width="100" height="100" viewBox="0 0 100 100" fill="none" xmlns="http://www.w3.org/2000/svg">
<circle cx="50" cy="50" r="50" fill="#FFF7F7"/>
<path fill-rule="evenodd" clip-rule="evenodd" d="M34.2446 34.9216C31.5045 34.9216 28.5024 34.4486 25.9504 35.5279V35.4551C25.3579 35.7341 24.7769 36.116 24.2186 36.5829L24.2015 36.6011C23.6831 37.0377 23.1875 37.5531 22.7261 38.1352V38.1412C22.6748 38.2079 22.6236 38.2746 22.5723 38.3413C22.5495 38.3716 22.5267 38.402 22.4982 38.4383L22.4925 38.4505C22.4356 38.5172 22.3843 38.5839 22.3387 38.6505L22.333 38.6566C22.3102 38.6869 22.2932 38.7172 22.2704 38.7476L22.259 38.7597V38.7658C22.2362 38.7961 22.2191 38.8264 22.1963 38.8567L22.1792 38.887L22.1223 38.9719L22.1166 38.984C22.0938 39.0144 22.071 39.0507 22.0482 39.0811L22.0311 39.1053L21.9798 39.1781L21.9628 39.2023C21.94 39.2326 21.9229 39.263 21.9058 39.2933L21.9001 39.2993L21.8887 39.3175C21.8716 39.3418 21.8545 39.3721 21.8374 39.3963L21.8146 39.4327C21.7919 39.463 21.7748 39.4994 21.752 39.5297V39.5358C21.7292 39.5661 21.7121 39.6025 21.6893 39.6389L21.6779 39.6631L21.6267 39.748L21.6153 39.7723C21.5982 39.8087 21.5754 39.839 21.5583 39.8754L21.5412 39.9057L21.5013 39.9784L21.4785 40.0209C21.4615 40.0512 21.4444 40.0876 21.4216 40.1179L21.4102 40.1361L21.3646 40.221L21.3475 40.2573C21.3304 40.2937 21.3133 40.324 21.2963 40.3604V40.3665C21.2792 40.4029 21.2564 40.4393 21.2393 40.4756L21.2279 40.4999L21.1823 40.5908L21.1709 40.6151L21.1083 40.7182L21.0912 40.7606L21.0513 40.8455L21.0399 40.8698C21.0228 40.9061 21.0057 40.9425 20.9886 40.9789L20.9715 41.0092L20.9317 41.0941L20.9203 41.1244C20.9032 41.1608 20.8861 41.2032 20.869 41.2396C19.9006 43.4164 19.6442 45.0535 19.4847 47.3758C19.16 49.7162 18.9891 52.0385 19.0005 54.3244C19.0062 54.379 19.0176 54.4336 19.029 54.4881V54.4942C19.0404 54.5427 19.0518 54.5973 19.0632 54.6458V54.6519C19.0746 54.7004 19.086 54.7489 19.0974 54.7913L19.1031 54.8034C19.1145 54.8459 19.1259 54.8944 19.1429 54.9368L19.1486 54.949C19.16 54.9914 19.1771 55.0278 19.1885 55.0702L19.1942 55.0884C19.2056 55.1248 19.2227 55.1612 19.2398 55.1976L19.2512 55.2218C19.2683 55.2582 19.2797 55.2885 19.2968 55.3249C20.2595 57.3379 22.9483 56.7922 23.8597 55.1551L23.8654 55.143L23.8711 55.1309C23.8825 55.1127 23.8939 55.0945 23.8996 55.0702C23.911 55.052 23.9167 55.0338 23.9224 55.0157C23.9281 55.0035 23.9338 54.9853 23.9395 54.9732C23.9509 54.949 23.9622 54.9247 23.9679 54.9065L23.9793 54.8762C23.9907 54.8459 24.0021 54.8216 24.0135 54.7913L24.0192 54.7731C24.0306 54.7428 24.042 54.7125 24.0477 54.6761V54.67C24.0591 54.6337 24.0705 54.5973 24.0762 54.5609V54.5548C24.0876 54.5185 24.0933 54.4821 24.099 54.4457C24.1047 54.4093 24.1104 54.3669 24.1161 54.3305L24.6344 47.1514C24.7142 46.0661 24.7826 45.3324 25.1927 44.3016C25.3864 43.8166 25.62 43.3982 25.8934 43.0586L25.9333 44.9807L26.1668 56.1677L22.7831 77.717C22.8229 81.9371 28.1606 81.9129 28.7417 78.4325L31.8064 59.2115L34.8028 78.1354C36.0618 82.8588 41.257 81.0943 40.7614 77.4987L39.8728 70.2712L37.5372 56.0464L37.7195 44.7564V44.9747L37.7252 44.6715L40.0266 48.0549C40.4823 48.7279 41.1545 49.1402 41.8666 49.2676L47.284 50.3772V59.642H42.59C41.9976 59.642 41.502 60.1695 41.502 60.8001C41.502 61.4307 41.9976 61.9583 42.59 61.9583H64.4877V67.1364C64.3566 67.1788 64.237 67.2758 64.1231 67.3789H64.106L57.3157 74.2366C56.877 74.6611 56.8599 75.3947 57.2758 75.8616C57.6746 76.3285 58.3638 76.3467 58.8025 75.9041L64.4706 70.1802V75.4008C64.4706 76.0314 64.9662 76.5589 65.5586 76.5589C66.1511 76.5589 66.6467 76.0314 66.6467 75.4008V70.4046L72.104 75.9101C72.5255 76.3588 73.2091 76.3346 73.6307 75.8677C74.0522 75.419 74.0294 74.6914 73.5908 74.2427L66.8005 67.3729C66.7435 67.3304 66.7036 67.294 66.6467 67.2516V61.9522H87.912C88.5044 61.9522 89 61.4247 89 60.7941C89 60.1635 88.5044 59.636 87.912 59.636H83.161V30.9985H87.798C88.3905 30.9985 88.8861 30.471 88.8861 29.8404C88.8861 29.2098 88.3905 28.6823 87.798 28.6823H66.4928V25.3111C66.4928 24.6805 65.9972 24.153 65.4048 24.153C64.8124 24.153 64.3168 24.6805 64.3168 25.3111V28.6823H42.5957C42.0033 28.6823 41.5077 29.2098 41.5077 29.8404C41.5077 30.471 42.0033 30.9985 42.5957 30.9985H47.2897V44.1804L43.9971 43.5073L39.3829 36.7224C38.9613 36.1039 38.3632 35.7037 37.7138 35.5461C36.6941 35.1277 35.5491 34.9216 34.2446 34.9216ZM50.1722 44.7746L56.803 37.3712C57.0707 37.0741 57.5151 37.0619 57.7999 37.3469C58.079 37.6319 58.0904 38.1048 57.8227 38.408L51.4482 45.5204C52.1318 46.2116 52.4793 47.2424 52.2913 48.3035C52.0293 49.7708 50.8159 50.7895 49.4601 50.7773V59.6481H81.002V30.9985H49.4601V44.6291L50.0184 44.7443C50.0696 44.7503 50.1209 44.7625 50.1722 44.7746ZM31.8121 21C35.1503 21 37.8619 23.8801 37.8619 27.4393C37.8619 30.9925 35.156 33.8787 31.8121 33.8787C28.4739 33.8787 25.7624 30.9985 25.7624 27.4393C25.7624 23.8801 28.4682 21 31.8121 21Z" fill="black"/>
</svg>
